<svg width="339.112" height="24.609" viewBox="0 0 339.112 24.609" xmlns="http://www.w3.org/2000/svg"><g id="svgGroup" stroke-linecap="round" fill-rule="evenodd" font-size="9pt" stroke="#ffffff" stroke-width="0.25mm" fill="#ffffff" style="stroke:#ffffff;stroke-width:0.25mm;fill:#ffffff"><path d="M 37.53 18.311 L 36.211 18.311 L 36.211 11.982 A 6.393 6.393 0 0 1 36.443 10.432 A 4.205 4.205 0 0 1 37.999 8.145 Q 38.767 7.575 39.535 7.559 A 2.137 2.137 0 0 1 39.581 7.559 A 2.013 2.013 0 0 1 40.565 7.792 Q 40.998 8.03 41.295 8.509 A 3.288 3.288 0 0 1 41.602 9.17 Q 41.836 9.873 41.836 10.752 L 41.836 16.553 Q 41.836 17.515 41.508 17.924 A 0.779 0.779 0 0 1 41.192 18.164 A 1.751 1.751 0 0 1 40.933 18.232 Q 40.517 18.311 39.786 18.311 L 39.786 19.043 L 46.084 19.043 A 1.41 1.41 0 0 0 46.065 18.797 Q 46.043 18.672 45.995 18.581 A 0.437 0.437 0 0 0 45.645 18.34 Q 45.558 18.318 45.438 18.312 A 1.853 1.853 0 0 0 45.352 18.311 L 44.034 18.311 L 44.034 11.045 L 44.034 10.811 A 5.498 5.498 0 0 1 44.491 9.493 A 3.757 3.757 0 0 1 46.114 7.822 A 3.267 3.267 0 0 1 46.659 7.617 A 2.38 2.38 0 0 1 47.286 7.529 A 2.2 2.2 0 0 1 48.283 7.748 Q 49.01 8.112 49.395 9.082 A 4.022 4.022 0 0 1 49.64 10.024 A 5.274 5.274 0 0 1 49.688 10.752 L 49.688 16.553 Q 49.688 17.515 49.36 17.924 A 0.779 0.779 0 0 1 49.043 18.164 A 1.751 1.751 0 0 1 48.784 18.232 Q 48.369 18.311 47.637 18.311 L 47.637 19.043 L 54.112 19.043 A 1.41 1.41 0 0 0 54.092 18.797 Q 54.07 18.672 54.022 18.581 A 0.437 0.437 0 0 0 53.672 18.34 Q 53.585 18.318 53.465 18.312 A 1.853 1.853 0 0 0 53.379 18.311 L 51.885 18.311 L 51.885 11.045 A 7.232 7.232 0 0 0 51.73 9.491 Q 51.333 7.69 49.922 6.826 Q 49.043 6.299 48.018 6.299 A 3.924 3.924 0 0 0 44.939 7.719 A 5.782 5.782 0 0 0 44.444 8.379 Q 44.092 8.906 43.858 9.492 Q 43.331 7.178 41.543 6.504 A 2.966 2.966 0 0 0 40.459 6.299 A 4.137 4.137 0 0 0 37.306 7.692 A 5.663 5.663 0 0 0 36.973 8.086 Q 36.475 8.73 36.182 9.521 L 36.065 6.592 L 31.817 6.592 L 31.817 7.324 L 34.014 7.324 L 34.014 16.553 A 3.64 3.64 0 0 1 33.978 17.09 Q 33.88 17.744 33.518 18.022 A 0.933 0.933 0 0 1 33.252 18.164 A 2.044 2.044 0 0 1 32.97 18.233 Q 32.66 18.289 32.195 18.305 A 11.383 11.383 0 0 1 31.817 18.311 L 31.817 19.043 L 38.262 19.043 A 1.296 1.296 0 0 0 38.241 18.799 Q 38.216 18.668 38.16 18.573 A 0.48 0.48 0 0 0 37.823 18.34 A 1.49 1.49 0 0 0 37.53 18.311 Z M 202.002 18.311 L 200.684 18.311 L 200.684 11.982 A 6.393 6.393 0 0 1 200.915 10.432 A 4.205 4.205 0 0 1 202.471 8.145 Q 203.24 7.575 204.008 7.559 A 2.137 2.137 0 0 1 204.053 7.559 A 2.013 2.013 0 0 1 205.037 7.792 Q 205.47 8.03 205.767 8.509 A 3.288 3.288 0 0 1 206.075 9.17 Q 206.309 9.873 206.309 10.752 L 206.309 16.553 Q 206.309 17.515 205.981 17.924 A 0.779 0.779 0 0 1 205.665 18.164 A 1.751 1.751 0 0 1 205.405 18.232 Q 204.99 18.311 204.258 18.311 L 204.258 19.043 L 210.557 19.043 A 1.41 1.41 0 0 0 210.538 18.797 Q 210.515 18.672 210.468 18.581 A 0.437 0.437 0 0 0 210.118 18.34 Q 210.03 18.318 209.91 18.312 A 1.853 1.853 0 0 0 209.825 18.311 L 208.506 18.311 L 208.506 11.045 L 208.506 10.811 A 5.498 5.498 0 0 1 208.964 9.493 A 3.757 3.757 0 0 1 210.586 7.822 A 3.267 3.267 0 0 1 211.132 7.617 A 2.38 2.38 0 0 1 211.758 7.529 A 2.2 2.2 0 0 1 212.755 7.748 Q 213.483 8.112 213.868 9.082 A 4.022 4.022 0 0 1 214.112 10.024 A 5.274 5.274 0 0 1 214.161 10.752 L 214.161 16.553 Q 214.161 17.515 213.832 17.924 A 0.779 0.779 0 0 1 213.516 18.164 A 1.751 1.751 0 0 1 213.257 18.232 Q 212.841 18.311 212.11 18.311 L 212.11 19.043 L 218.584 19.043 A 1.41 1.41 0 0 0 218.565 18.797 Q 218.543 18.672 218.495 18.581 A 0.437 0.437 0 0 0 218.145 18.34 Q 218.058 18.318 217.938 18.312 A 1.853 1.853 0 0 0 217.852 18.311 L 216.358 18.311 L 216.358 11.045 A 7.232 7.232 0 0 0 216.203 9.491 Q 215.806 7.69 214.395 6.826 Q 213.516 6.299 212.491 6.299 A 3.924 3.924 0 0 0 209.412 7.719 A 5.782 5.782 0 0 0 208.916 8.379 Q 208.565 8.906 208.331 9.492 Q 207.803 7.178 206.016 6.504 A 2.966 2.966 0 0 0 204.932 6.299 A 4.137 4.137 0 0 0 201.779 7.692 A 5.663 5.663 0 0 0 201.446 8.086 Q 200.948 8.73 200.655 9.521 L 200.538 6.592 L 196.29 6.592 L 196.29 7.324 L 198.487 7.324 L 198.487 16.553 A 3.64 3.64 0 0 1 198.45 17.09 Q 198.352 17.744 197.991 18.022 A 0.933 0.933 0 0 1 197.725 18.164 A 2.044 2.044 0 0 1 197.443 18.233 Q 197.132 18.289 196.668 18.305 A 11.383 11.383 0 0 1 196.29 18.311 L 196.29 19.043 L 202.735 19.043 A 1.296 1.296 0 0 0 202.714 18.799 Q 202.689 18.668 202.633 18.573 A 0.48 0.48 0 0 0 202.295 18.34 A 1.49 1.49 0 0 0 202.002 18.311 Z M 15.499 19.189 L 15.499 13.652 L 14.795 13.652 A 9.039 9.039 0 0 1 13.791 15.881 Q 12.222 18.321 9.249 18.501 A 7.944 7.944 0 0 1 8.819 18.516 Q 5.73 18.516 4.241 15.991 A 7.689 7.689 0 0 1 3.633 14.678 A 10.848 10.848 0 0 1 3.133 12.669 Q 2.959 11.548 2.959 10.254 A 15.492 15.492 0 0 1 3.16 7.663 Q 3.392 6.297 3.894 5.246 A 5.804 5.804 0 0 1 5.977 2.813 A 5.434 5.434 0 0 1 8.907 1.992 A 6.004 6.004 0 0 1 11.324 2.458 Q 12.753 3.08 13.697 4.529 A 7.831 7.831 0 0 1 14.209 5.449 Q 14.502 6.064 14.708 6.709 L 15.411 6.709 L 15.323 1.318 Q 14.998 1.318 14.8 1.422 A 0.541 0.541 0 0 0 14.532 1.729 A 2.078 2.078 0 0 0 14.491 1.946 Q 14.444 2.29 14.444 2.871 Q 13.671 2.099 11.906 1.593 A 13.675 13.675 0 0 0 11.543 1.494 Q 10.196 1.172 8.79 1.172 A 9.957 9.957 0 0 0 5.743 1.615 A 7.813 7.813 0 0 0 1.7 4.6 A 9.454 9.454 0 0 0 0.006 9.851 A 11.565 11.565 0 0 0 0 10.195 A 10.246 10.246 0 0 0 0.522 13.523 A 8.823 8.823 0 0 0 2.374 16.641 A 8.379 8.379 0 0 0 8.07 19.304 A 11.421 11.421 0 0 0 8.936 19.336 Q 11.895 19.307 14.59 17.695 A 6.697 6.697 0 0 0 14.603 18.12 Q 14.656 18.959 14.942 19.102 A 0.922 0.922 0 0 0 15.108 19.153 Q 15.273 19.189 15.499 19.189 Z M 106.172 19.043 L 113.35 19.043 L 113.35 18.281 L 111.036 18.281 L 111.036 10.986 L 113.819 10.986 L 118.506 19.043 L 122.93 19.043 Q 122.93 18.586 122.753 18.409 A 0.368 0.368 0 0 0 122.579 18.311 Q 122.465 18.288 122.315 18.283 A 2.606 2.606 0 0 0 122.227 18.281 L 121.114 18.281 L 116.397 10.723 A 6.808 6.808 0 0 0 118.103 10.076 A 4.831 4.831 0 0 0 120.206 7.822 A 4.474 4.474 0 0 0 120.585 6.149 A 4.32 4.32 0 0 0 120.586 6.035 A 3.984 3.984 0 0 0 119.231 2.953 A 5.357 5.357 0 0 0 118.682 2.52 A 5.958 5.958 0 0 0 116.471 1.616 A 8.326 8.326 0 0 0 114.844 1.465 L 106.172 1.465 L 106.172 2.227 L 108.516 2.227 L 108.516 18.281 L 106.172 18.281 L 106.172 19.043 Z M 239.502 18.311 L 238.184 18.311 L 238.184 11.982 A 6.469 6.469 0 0 1 238.408 10.437 A 4.037 4.037 0 0 1 240.118 8.057 Q 240.909 7.559 241.729 7.559 Q 243.295 7.559 243.984 8.841 A 3.426 3.426 0 0 1 244.161 9.229 A 3.792 3.792 0 0 1 244.387 10.136 A 4.89 4.89 0 0 1 244.424 10.752 L 244.424 16.553 A 3.64 3.64 0 0 1 244.388 17.09 Q 244.29 17.744 243.928 18.022 A 0.933 0.933 0 0 1 243.663 18.164 A 2.044 2.044 0 0 1 243.381 18.233 Q 243.07 18.289 242.605 18.305 A 11.383 11.383 0 0 1 242.227 18.311 L 242.227 19.043 L 248.819 19.043 A 1.41 1.41 0 0 0 248.799 18.797 Q 248.777 18.672 248.729 18.581 A 0.437 0.437 0 0 0 248.379 18.34 Q 248.292 18.318 248.172 18.312 A 1.853 1.853 0 0 0 248.086 18.311 L 246.622 18.311 L 246.622 11.045 A 6.65 6.65 0 0 0 246.443 9.453 A 4.084 4.084 0 0 0 244.6 6.855 A 3.891 3.891 0 0 0 242.579 6.299 Q 240.411 6.299 239.004 8.027 A 5.924 5.924 0 0 0 238.155 9.521 L 238.038 6.592 L 233.79 6.592 L 233.79 7.324 L 235.987 7.324 L 235.987 16.553 A 3.64 3.64 0 0 1 235.95 17.09 Q 235.852 17.744 235.491 18.022 A 0.933 0.933 0 0 1 235.225 18.164 A 2.044 2.044 0 0 1 234.943 18.233 Q 234.632 18.289 234.168 18.305 A 11.383 11.383 0 0 1 233.79 18.311 L 233.79 19.043 L 240.235 19.043 A 1.41 1.41 0 0 0 240.215 18.797 Q 240.193 18.672 240.145 18.581 A 0.437 0.437 0 0 0 239.795 18.34 Q 239.708 18.318 239.588 18.312 A 1.853 1.853 0 0 0 239.502 18.311 Z M 86.045 18.311 L 84.581 18.311 L 84.581 6.592 L 79.981 6.592 L 79.981 7.324 L 82.383 7.324 L 82.383 13.652 A 5.943 5.943 0 0 1 82.203 15.163 A 3.936 3.936 0 0 1 80.538 17.52 A 3.348 3.348 0 0 1 79.716 17.933 A 2.761 2.761 0 0 1 78.838 18.076 A 3.448 3.448 0 0 1 77.734 17.913 Q 76.666 17.553 76.25 16.4 A 4.197 4.197 0 0 1 76.055 15.615 A 5.805 5.805 0 0 1 76.005 15.08 A 6.991 6.991 0 0 1 75.997 14.736 L 75.997 6.592 L 71.543 6.592 L 71.543 7.324 L 73.799 7.324 L 73.799 14.297 A 8.822 8.822 0 0 0 73.992 16.173 Q 74.601 18.882 77.135 19.271 A 5.907 5.907 0 0 0 77.989 19.336 A 4.326 4.326 0 0 0 81.275 17.918 A 5.62 5.62 0 0 0 81.592 17.549 A 5.924 5.924 0 0 0 82.442 16.055 L 82.647 19.043 L 86.778 19.043 A 1.41 1.41 0 0 0 86.758 18.797 Q 86.736 18.672 86.688 18.581 A 0.437 0.437 0 0 0 86.338 18.34 Q 86.251 18.318 86.131 18.312 A 1.853 1.853 0 0 0 86.045 18.311 Z M 175.87 18.311 L 174.405 18.311 L 174.405 6.592 L 169.805 6.592 L 169.805 7.324 L 172.208 7.324 L 172.208 13.652 A 5.943 5.943 0 0 1 172.027 15.163 A 3.936 3.936 0 0 1 170.362 17.52 A 3.348 3.348 0 0 1 169.54 17.933 A 2.761 2.761 0 0 1 168.663 18.076 A 3.448 3.448 0 0 1 167.558 17.913 Q 166.491 17.553 166.074 16.4 A 4.197 4.197 0 0 1 165.879 15.615 A 5.805 5.805 0 0 1 165.829 15.08 A 6.991 6.991 0 0 1 165.821 14.736 L 165.821 6.592 L 161.368 6.592 L 161.368 7.324 L 163.624 7.324 L 163.624 14.297 A 8.822 8.822 0 0 0 163.816 16.173 Q 164.425 18.882 166.959 19.271 A 5.907 5.907 0 0 0 167.813 19.336 A 4.326 4.326 0 0 0 171.099 17.918 A 5.62 5.62 0 0 0 171.416 17.549 A 5.924 5.924 0 0 0 172.266 16.055 L 172.471 19.043 L 176.602 19.043 A 1.41 1.41 0 0 0 176.582 18.797 Q 176.56 18.672 176.513 18.581 A 0.437 0.437 0 0 0 176.163 18.34 Q 176.075 18.318 175.955 18.312 A 1.853 1.853 0 0 0 175.87 18.311 Z M 62.051 23.877 L 60 23.877 L 60 17.813 A 6.022 6.022 0 0 0 63.721 19.336 A 5.591 5.591 0 0 0 67.863 17.611 A 6.93 6.93 0 0 0 68.086 17.373 A 6.619 6.619 0 0 0 69.698 13.814 A 9.019 9.019 0 0 0 69.786 12.539 A 9.64 9.64 0 0 0 69.596 10.565 Q 69.345 9.365 68.761 8.457 A 5.191 5.191 0 0 0 67.94 7.471 A 4.471 4.471 0 0 0 64.92 6.3 A 5.733 5.733 0 0 0 64.805 6.299 A 5.639 5.639 0 0 0 62.984 6.578 A 4.526 4.526 0 0 0 60.557 8.555 A 7.106 7.106 0 0 0 59.971 9.785 L 59.825 6.592 L 55.606 6.592 L 55.606 7.324 L 57.803 7.324 L 57.803 22.119 A 3.64 3.64 0 0 1 57.767 22.657 Q 57.669 23.31 57.307 23.588 A 0.933 0.933 0 0 1 57.041 23.73 A 2.044 2.044 0 0 1 56.76 23.8 Q 56.449 23.856 55.984 23.871 A 11.383 11.383 0 0 1 55.606 23.877 L 55.606 24.609 L 62.784 24.609 A 1.41 1.41 0 0 0 62.764 24.364 Q 62.742 24.238 62.694 24.147 A 0.437 0.437 0 0 0 62.344 23.906 Q 62.257 23.884 62.137 23.879 A 1.853 1.853 0 0 0 62.051 23.877 Z M 97.618 6.123 L 97.618 9.785 L 96.856 9.785 Q 96.81 7.671 94.998 7.197 A 4.662 4.662 0 0 0 93.868 7.061 A 5.715 5.715 0 0 0 92.933 7.131 Q 91.547 7.361 91.143 8.35 A 1.886 1.886 0 0 0 90.997 9.082 A 1.766 1.766 0 0 0 91.458 10.255 Q 91.699 10.536 92.066 10.791 A 5.548 5.548 0 0 0 92.813 11.221 Q 93.216 11.422 94.07 11.765 A 45.988 45.988 0 0 0 94.102 11.777 A 20.283 20.283 0 0 1 95.19 12.255 Q 96.217 12.746 96.817 13.213 A 3.466 3.466 0 0 1 97.266 13.623 A 3.204 3.204 0 0 1 98.116 15.85 A 3.373 3.373 0 0 1 97.844 17.237 Q 97.471 18.073 96.585 18.588 A 4.872 4.872 0 0 1 95.596 19.014 A 6.316 6.316 0 0 1 94.116 19.31 A 7.609 7.609 0 0 1 93.487 19.336 A 7.469 7.469 0 0 1 91.517 19.058 A 6.128 6.128 0 0 1 89.825 18.281 Q 89.825 19.043 89.444 19.16 A 1.996 1.996 0 0 1 89.279 19.18 Q 89.166 19.189 89.034 19.189 L 89.034 14.736 L 89.854 14.736 Q 89.905 18.057 92.4 18.483 A 4.625 4.625 0 0 0 93.135 18.545 A 5.143 5.143 0 0 0 94.103 18.461 Q 94.625 18.36 95.019 18.141 A 2.157 2.157 0 0 0 95.86 17.314 A 1.844 1.844 0 0 0 96.124 16.348 Q 96.124 15.117 94.336 14.238 A 6.985 6.985 0 0 0 94.115 14.125 Q 93.736 13.938 93.077 13.652 A 21.119 21.119 0 0 1 91.976 13.162 Q 90.477 12.437 89.883 11.777 Q 89.034 10.811 89.034 9.521 Q 89.034 7.944 90.389 7.098 A 4.73 4.73 0 0 1 91.26 6.68 A 6.159 6.159 0 0 1 93.006 6.315 A 7.257 7.257 0 0 1 93.487 6.299 A 7.663 7.663 0 0 1 95.131 6.467 A 5.813 5.813 0 0 1 96.827 7.119 A 2.682 2.682 0 0 1 96.844 6.804 Q 96.882 6.483 97.006 6.315 A 0.429 0.429 0 0 1 97.237 6.152 A 2.144 2.144 0 0 1 97.468 6.127 A 2.649 2.649 0 0 1 97.618 6.123 Z M 265.958 19.043 L 273.75 19.043 A 1.331 1.331 0 0 0 273.728 18.788 Q 273.701 18.649 273.641 18.549 A 0.507 0.507 0 0 0 273.282 18.311 A 1.49 1.49 0 0 0 272.989 18.281 L 270.821 18.281 L 270.821 11.279 L 273.399 11.279 A 13.114 13.114 0 0 0 275.598 11.109 Q 278.592 10.598 279.756 8.555 A 4.321 4.321 0 0 0 280.338 6.796 A 5.45 5.45 0 0 0 280.372 6.182 Q 280.372 3.281 277.852 2.109 Q 276.554 1.488 274.766 1.466 A 10.742 10.742 0 0 0 274.629 1.465 L 265.958 1.465 L 265.958 2.227 L 268.301 2.227 L 268.301 18.281 L 265.958 18.281 L 265.958 19.043 Z M 30.791 16.289 L 30.03 16.26 A 7.522 7.522 0 0 1 29.927 16.988 Q 29.673 18.281 29.016 18.413 A 0.774 0.774 0 0 1 28.887 18.428 A 0.685 0.685 0 0 1 28.315 18.029 Q 28.111 17.648 28.096 16.904 L 28.096 10.723 A 6.072 6.072 0 0 0 27.868 8.982 Q 27.118 6.479 23.907 6.299 L 23.379 6.299 A 10.983 10.983 0 0 0 21.88 6.393 Q 19.821 6.678 18.985 7.822 A 2.136 2.136 0 0 0 18.757 8.227 A 1.52 1.52 0 0 0 18.633 8.818 A 1.436 1.436 0 0 0 18.686 9.222 Q 18.819 9.677 19.293 9.827 A 1.439 1.439 0 0 0 19.483 9.873 A 1.49 1.49 0 0 0 19.776 9.902 Q 20.406 9.902 20.728 9.16 A 2.439 2.439 0 0 0 20.772 9.053 A 33.051 33.051 0 0 1 20.917 8.677 Q 21.21 7.93 21.329 7.764 A 1.773 1.773 0 0 1 22.324 7.118 Q 22.654 7.031 23.057 7.031 A 3.927 3.927 0 0 1 24.235 7.273 Q 25.47 7.754 25.79 9.152 A 4.673 4.673 0 0 1 25.899 10.049 L 25.899 11.895 A 25.191 25.191 0 0 0 23.348 12.013 Q 18.812 12.477 18.018 14.766 A 3.829 3.829 0 0 0 17.852 15.67 A 4.512 4.512 0 0 0 17.842 15.967 A 3.872 3.872 0 0 0 18.025 17.193 Q 18.4 18.321 19.548 18.896 A 4.151 4.151 0 0 0 19.805 19.014 Q 20.596 19.336 21.475 19.336 A 5.144 5.144 0 0 0 23.557 18.923 A 4.943 4.943 0 0 0 25.079 17.871 A 4.398 4.398 0 0 0 25.588 17.226 A 3.589 3.589 0 0 0 25.87 16.699 A 5.07 5.07 0 0 0 26.11 17.733 Q 26.652 19.241 28.129 19.331 A 3.099 3.099 0 0 0 28.272 19.336 A 2.682 2.682 0 0 0 29.353 19.133 Q 30.592 18.592 30.762 16.611 A 2.284 2.284 0 0 0 30.784 16.443 A 1.701 1.701 0 0 0 30.791 16.289 Z M 331.29 16.289 L 330.528 16.26 A 7.522 7.522 0 0 1 330.425 16.988 Q 330.171 18.281 329.514 18.413 A 0.774 0.774 0 0 1 329.385 18.428 A 0.685 0.685 0 0 1 328.813 18.029 Q 328.609 17.648 328.594 16.904 L 328.594 10.723 A 6.072 6.072 0 0 0 328.366 8.982 Q 327.616 6.479 324.405 6.299 L 323.877 6.299 A 10.983 10.983 0 0 0 322.378 6.393 Q 320.319 6.678 319.483 7.822 A 2.136 2.136 0 0 0 319.255 8.227 A 1.52 1.52 0 0 0 319.131 8.818 A 1.436 1.436 0 0 0 319.184 9.222 Q 319.317 9.677 319.791 9.827 A 1.439 1.439 0 0 0 319.981 9.873 A 1.49 1.49 0 0 0 320.274 9.902 Q 320.904 9.902 321.227 9.16 A 2.439 2.439 0 0 0 321.27 9.053 A 33.051 33.051 0 0 1 321.415 8.677 Q 321.708 7.93 321.827 7.764 A 1.773 1.773 0 0 1 322.822 7.118 Q 323.152 7.031 323.555 7.031 A 3.927 3.927 0 0 1 324.733 7.273 Q 325.968 7.754 326.288 9.152 A 4.673 4.673 0 0 1 326.397 10.049 L 326.397 11.895 A 25.191 25.191 0 0 0 323.846 12.013 Q 319.31 12.477 318.516 14.766 A 3.829 3.829 0 0 0 318.35 15.67 A 4.512 4.512 0 0 0 318.34 15.967 A 3.872 3.872 0 0 0 318.523 17.193 Q 318.898 18.321 320.046 18.896 A 4.151 4.151 0 0 0 320.303 19.014 Q 321.094 19.336 321.973 19.336 A 5.144 5.144 0 0 0 324.055 18.923 A 4.943 4.943 0 0 0 325.577 17.871 A 4.398 4.398 0 0 0 326.086 17.226 A 3.589 3.589 0 0 0 326.368 16.699 A 5.07 5.07 0 0 0 326.608 17.733 Q 327.15 19.241 328.627 19.331 A 3.099 3.099 0 0 0 328.77 19.336 A 2.682 2.682 0 0 0 329.851 19.133 Q 331.09 18.592 331.26 16.611 A 2.284 2.284 0 0 0 331.282 16.443 A 1.701 1.701 0 0 0 331.29 16.289 Z M 149.122 16.201 L 148.36 15.938 A 4.762 4.762 0 0 1 147.374 17.357 Q 146.457 18.246 145.078 18.451 A 5.446 5.446 0 0 1 144.786 18.486 A 3.776 3.776 0 0 1 144.317 18.516 A 3.379 3.379 0 0 1 141.621 17.246 A 5.25 5.25 0 0 1 141.065 16.436 A 6.857 6.857 0 0 1 140.312 14.244 A 9.237 9.237 0 0 1 140.186 12.686 A 11.32 11.32 0 0 1 140.312 10.926 Q 140.455 10.026 140.757 9.327 A 3.829 3.829 0 0 1 142.208 7.559 A 3.486 3.486 0 0 1 144.083 7.031 A 3.055 3.055 0 0 1 144.774 7.103 Q 145.725 7.325 145.978 8.229 A 2.086 2.086 0 0 1 145.987 8.262 A 4.802 4.802 0 0 1 146.018 8.395 Q 146.066 8.615 146.13 8.976 A 29.8 29.8 0 0 1 146.133 8.994 A 5.278 5.278 0 0 0 146.224 9.465 Q 146.345 9.957 146.539 10.228 A 0.858 0.858 0 0 0 146.778 10.459 A 1.726 1.726 0 0 0 147.335 10.626 A 1.995 1.995 0 0 0 147.422 10.635 Q 148.418 10.693 148.682 9.814 A 1.615 1.615 0 0 0 148.726 9.617 A 1.205 1.205 0 0 0 148.741 9.434 A 2.234 2.234 0 0 0 148.078 7.854 Q 147.776 7.536 147.336 7.256 A 5.923 5.923 0 0 0 146.836 6.973 A 6.459 6.459 0 0 0 143.907 6.299 A 7.455 7.455 0 0 0 141.735 6.595 A 5.278 5.278 0 0 0 138.428 9.492 A 7.389 7.389 0 0 0 137.767 11.781 A 9.287 9.287 0 0 0 137.696 12.949 A 7.606 7.606 0 0 0 137.997 15.152 A 5.594 5.594 0 0 0 140.303 18.252 A 6.393 6.393 0 0 0 143.885 19.336 A 7.71 7.71 0 0 0 143.965 19.336 A 6.874 6.874 0 0 0 145.874 19.086 A 4.924 4.924 0 0 0 148.565 17.197 Q 148.916 16.699 149.122 16.201 Z M 156.709 18.311 L 154.6 18.311 L 154.6 12.48 Q 154.6 9.814 156.241 8.203 A 4.423 4.423 0 0 1 156.55 7.932 Q 156.867 7.682 157.126 7.598 A 0.831 0.831 0 0 1 157.325 7.559 A 0.728 0.728 0 0 1 157.758 7.709 Q 157.992 7.879 158.204 8.24 A 3.124 3.124 0 0 1 158.233 8.291 Q 158.576 8.892 158.888 9.116 A 0.733 0.733 0 0 0 159.112 9.229 A 1.107 1.107 0 0 0 159.458 9.287 A 1.048 1.048 0 0 0 159.463 9.287 A 1.364 1.364 0 0 0 159.907 9.22 Q 160.312 9.081 160.5 8.655 A 1.582 1.582 0 0 0 160.577 8.437 A 1.107 1.107 0 0 0 160.635 8.091 A 1.048 1.048 0 0 0 160.635 8.086 A 1.919 1.919 0 0 0 160.534 7.442 Q 160.334 6.876 159.733 6.615 A 2.389 2.389 0 0 0 159.288 6.475 A 3.051 3.051 0 0 0 158.933 6.424 A 2.532 2.532 0 0 0 158.731 6.416 A 3.934 3.934 0 0 0 156.217 7.328 A 5.609 5.609 0 0 0 155.596 7.91 A 5.648 5.648 0 0 0 154.571 9.492 L 154.454 6.592 L 150.206 6.592 L 150.206 7.324 L 152.403 7.324 L 152.403 16.553 A 3.64 3.64 0 0 1 152.366 17.09 Q 152.268 17.744 151.907 18.022 A 0.933 0.933 0 0 1 151.641 18.164 A 2.044 2.044 0 0 1 151.359 18.233 Q 151.048 18.289 150.584 18.305 A 11.383 11.383 0 0 1 150.206 18.311 L 150.206 19.043 L 157.442 19.043 A 1.41 1.41 0 0 0 157.422 18.797 Q 157.4 18.672 157.352 18.581 A 0.437 0.437 0 0 0 157.002 18.34 Q 156.915 18.318 156.795 18.312 A 1.853 1.853 0 0 0 156.709 18.311 Z M 303.721 18.311 L 301.612 18.311 L 301.612 12.48 Q 301.612 9.814 303.252 8.203 A 4.423 4.423 0 0 1 303.562 7.932 Q 303.879 7.682 304.138 7.598 A 0.831 0.831 0 0 1 304.336 7.559 A 0.728 0.728 0 0 1 304.77 7.709 Q 305.004 7.879 305.216 8.24 A 3.124 3.124 0 0 1 305.245 8.291 Q 305.588 8.892 305.9 9.116 A 0.733 0.733 0 0 0 306.124 9.229 A 1.107 1.107 0 0 0 306.47 9.287 A 1.048 1.048 0 0 0 306.475 9.287 A 1.364 1.364 0 0 0 306.918 9.22 Q 307.324 9.081 307.512 8.655 A 1.582 1.582 0 0 0 307.588 8.437 A 1.107 1.107 0 0 0 307.647 8.091 A 1.048 1.048 0 0 0 307.647 8.086 A 1.919 1.919 0 0 0 307.546 7.442 Q 307.345 6.876 306.744 6.615 A 2.389 2.389 0 0 0 306.299 6.475 A 3.051 3.051 0 0 0 305.945 6.424 A 2.532 2.532 0 0 0 305.743 6.416 A 3.934 3.934 0 0 0 303.229 7.328 A 5.609 5.609 0 0 0 302.608 7.91 A 5.648 5.648 0 0 0 301.583 9.492 L 301.465 6.592 L 297.217 6.592 L 297.217 7.324 L 299.415 7.324 L 299.415 16.553 A 3.64 3.64 0 0 1 299.378 17.09 Q 299.28 17.744 298.919 18.022 A 0.933 0.933 0 0 1 298.653 18.164 A 2.044 2.044 0 0 1 298.371 18.233 Q 298.06 18.289 297.595 18.305 A 11.383 11.383 0 0 1 297.217 18.311 L 297.217 19.043 L 304.454 19.043 A 1.41 1.41 0 0 0 304.434 18.797 Q 304.412 18.672 304.364 18.581 A 0.437 0.437 0 0 0 304.014 18.34 Q 303.927 18.318 303.807 18.312 A 1.853 1.853 0 0 0 303.721 18.311 Z M 186.475 6.592 L 186.475 7.324 L 188.526 7.324 L 188.526 15.586 A 6.283 6.283 0 0 0 188.764 17.041 Q 189.435 19.274 191.895 19.365 A 3.217 3.217 0 0 0 193.494 18.983 Q 194.709 18.302 195.184 16.41 A 8.062 8.062 0 0 0 195.264 16.055 L 195.264 15.996 L 194.473 15.85 Q 193.741 18.281 192.334 18.486 A 1.608 1.608 0 0 1 191.523 18.258 Q 190.901 17.866 190.762 16.807 A 4.967 4.967 0 0 1 190.723 16.23 L 190.723 7.324 L 195.264 7.324 L 195.264 6.592 L 190.723 6.592 L 190.723 3.193 L 188.526 3.809 L 188.526 6.592 L 186.475 6.592 Z M 250.137 6.592 L 250.137 7.324 L 252.188 7.324 L 252.188 15.586 A 6.283 6.283 0 0 0 252.426 17.041 Q 253.098 19.274 255.557 19.365 A 3.217 3.217 0 0 0 257.156 18.983 Q 258.371 18.302 258.846 16.41 A 8.062 8.062 0 0 0 258.926 16.055 L 258.926 15.996 L 258.135 15.85 Q 257.403 18.281 255.997 18.486 A 1.608 1.608 0 0 1 255.185 18.258 Q 254.563 17.866 254.424 16.807 A 4.967 4.967 0 0 1 254.385 16.23 L 254.385 7.324 L 258.926 7.324 L 258.926 6.592 L 254.385 6.592 L 254.385 3.193 L 252.188 3.809 L 252.188 6.592 L 250.137 6.592 Z M 308.379 6.592 L 308.379 7.324 L 310.43 7.324 L 310.43 15.586 A 6.283 6.283 0 0 0 310.668 17.041 Q 311.34 19.274 313.799 19.365 A 3.217 3.217 0 0 0 315.398 18.983 Q 316.613 18.302 317.088 16.41 A 8.062 8.062 0 0 0 317.168 16.055 L 317.168 15.996 L 316.377 15.85 Q 315.645 18.281 314.239 18.486 A 1.608 1.608 0 0 1 313.428 18.258 Q 312.805 17.866 312.666 16.807 A 4.967 4.967 0 0 1 312.627 16.23 L 312.627 7.324 L 317.168 7.324 L 317.168 6.592 L 312.627 6.592 L 312.627 3.193 L 310.43 3.809 L 310.43 6.592 L 308.379 6.592 Z M 135.323 16.23 L 134.59 15.967 Q 133.568 18.188 131.291 18.485 A 5.045 5.045 0 0 1 131.28 18.486 A 5.902 5.902 0 0 1 130.891 18.513 A 4.999 4.999 0 0 1 130.723 18.516 Q 127.647 18.516 126.856 14.854 A 10.31 10.31 0 0 1 126.65 13.564 A 13.077 13.077 0 0 1 126.592 12.598 L 130.108 12.656 Q 133.506 12.712 134.601 12.053 A 1.644 1.644 0 0 0 134.708 11.982 A 1.895 1.895 0 0 0 135.485 10.592 A 2.719 2.719 0 0 0 135.499 10.313 A 3.31 3.31 0 0 0 134.24 7.679 A 5.316 5.316 0 0 0 133.477 7.148 A 6.099 6.099 0 0 0 131.021 6.345 A 7.651 7.651 0 0 0 130.166 6.299 Q 126.601 6.299 125.007 9.187 A 7.109 7.109 0 0 0 124.922 9.346 A 7.336 7.336 0 0 0 124.147 12.009 A 9.03 9.03 0 0 0 124.102 12.92 A 7.983 7.983 0 0 0 124.383 15.102 A 5.599 5.599 0 0 0 126.709 18.311 A 6.225 6.225 0 0 0 129.976 19.331 A 7.567 7.567 0 0 0 130.254 19.336 A 6.888 6.888 0 0 0 132.131 19.096 A 4.773 4.773 0 0 0 134.913 17.051 A 8.072 8.072 0 0 0 135.301 16.282 A 7.434 7.434 0 0 0 135.323 16.23 Z M 231.709 16.23 L 230.977 15.967 Q 229.954 18.188 227.678 18.485 A 5.045 5.045 0 0 1 227.666 18.486 A 5.902 5.902 0 0 1 227.278 18.513 A 4.999 4.999 0 0 1 227.11 18.516 Q 224.034 18.516 223.243 14.854 A 10.31 10.31 0 0 1 223.037 13.564 A 13.077 13.077 0 0 1 222.979 12.598 L 226.495 12.656 Q 229.893 12.712 230.987 12.053 A 1.644 1.644 0 0 0 231.094 11.982 A 1.895 1.895 0 0 0 231.871 10.592 A 2.719 2.719 0 0 0 231.885 10.313 A 3.31 3.31 0 0 0 230.627 7.679 A 5.316 5.316 0 0 0 229.864 7.148 A 6.099 6.099 0 0 0 227.408 6.345 A 7.651 7.651 0 0 0 226.553 6.299 Q 222.987 6.299 221.394 9.187 A 7.109 7.109 0 0 0 221.309 9.346 A 7.336 7.336 0 0 0 220.534 12.009 A 9.03 9.03 0 0 0 220.489 12.92 A 7.983 7.983 0 0 0 220.769 15.102 A 5.599 5.599 0 0 0 223.096 18.311 A 6.225 6.225 0 0 0 226.363 19.331 A 7.567 7.567 0 0 0 226.641 19.336 A 6.888 6.888 0 0 0 228.517 19.096 A 4.773 4.773 0 0 0 231.299 17.051 A 8.072 8.072 0 0 0 231.687 16.282 A 7.434 7.434 0 0 0 231.709 16.23 Z M 338.379 18.311 L 336.797 18.311 L 336.797 0 L 332.403 0 L 332.403 0.732 L 334.6 0.732 L 334.6 16.553 A 3.64 3.64 0 0 1 334.564 17.09 Q 334.466 17.744 334.104 18.022 A 0.933 0.933 0 0 1 333.838 18.164 A 2.044 2.044 0 0 1 333.556 18.233 Q 333.246 18.289 332.781 18.305 A 11.383 11.383 0 0 1 332.403 18.311 L 332.403 19.043 L 339.112 19.043 A 1.41 1.41 0 0 0 339.092 18.797 Q 339.07 18.672 339.022 18.581 A 0.437 0.437 0 0 0 338.672 18.34 Q 338.585 18.318 338.465 18.312 A 1.853 1.853 0 0 0 338.379 18.311 Z M 184.278 18.311 L 182.813 18.311 L 182.813 6.592 L 178.272 6.592 L 178.272 7.324 L 180.616 7.324 L 180.616 16.553 A 3.031 3.031 0 0 1 180.566 17.127 Q 180.403 17.969 179.708 18.193 A 2.447 2.447 0 0 1 179.435 18.247 Q 179.142 18.29 178.71 18.304 A 13.798 13.798 0 0 1 178.272 18.311 L 178.272 19.043 L 185.01 19.043 A 1.41 1.41 0 0 0 184.991 18.797 Q 184.968 18.672 184.921 18.581 A 0.437 0.437 0 0 0 184.571 18.34 A 1.49 1.49 0 0 0 184.278 18.311 Z M 288.838 6.299 A 6.712 6.712 0 0 0 286.297 6.767 A 6.227 6.227 0 0 0 284.151 8.232 Q 282.422 10.02 282.422 12.686 A 7.983 7.983 0 0 0 282.737 14.993 A 5.866 5.866 0 0 0 285.118 18.223 A 6.329 6.329 0 0 0 288.75 19.336 A 6.501 6.501 0 0 0 291.248 18.869 A 6.089 6.089 0 0 0 293.409 17.344 A 6.247 6.247 0 0 0 295.085 13.429 A 8.255 8.255 0 0 0 295.108 12.803 A 7.903 7.903 0 0 0 294.815 10.585 A 5.703 5.703 0 0 0 292.383 7.324 A 6.471 6.471 0 0 0 288.838 6.299 Z M 287.403 7.266 A 3.19 3.19 0 0 0 286.501 7.811 Q 284.913 9.176 284.913 12.803 A 13.631 13.631 0 0 0 284.955 13.896 A 10.295 10.295 0 0 0 285.118 15.088 A 8.518 8.518 0 0 0 285.182 15.363 Q 285.719 17.496 287.133 18.225 A 3.672 3.672 0 0 0 288.838 18.604 A 4.031 4.031 0 0 0 289.922 18.457 A 3.079 3.079 0 0 0 291.085 17.793 Q 292.618 16.397 292.618 12.686 A 14.404 14.404 0 0 0 292.596 11.873 A 10.969 10.969 0 0 0 292.53 11.133 A 9.467 9.467 0 0 0 292.422 10.475 Q 291.73 7.031 288.75 7.031 Q 288.047 7.031 287.403 7.266 Z M 65.472 7.892 A 2.979 2.979 0 0 0 63.868 7.471 Q 62.813 7.471 61.934 8.115 A 4.258 4.258 0 0 0 60.595 9.838 Q 59.971 11.241 59.971 13.389 A 11.86 11.86 0 0 0 59.974 13.65 Q 59.989 14.349 60.088 14.964 A 6.825 6.825 0 0 0 60.411 16.23 Q 60.958 17.76 62.09 18.304 A 3.254 3.254 0 0 0 63.516 18.604 A 3.855 3.855 0 0 0 63.565 18.603 A 3.339 3.339 0 0 0 64.981 18.281 Q 67.295 17.139 67.295 12.832 A 12.259 12.259 0 0 0 67.25 11.757 A 9.135 9.135 0 0 0 67.09 10.664 A 7.97 7.97 0 0 0 67.01 10.322 Q 66.559 8.567 65.472 7.892 Z M 270.821 2.227 L 274.014 2.227 A 4.382 4.382 0 0 1 275.331 2.411 Q 276.688 2.837 277.267 4.252 A 4.569 4.569 0 0 1 277.383 4.57 Q 277.618 5.332 277.618 6.211 A 6.277 6.277 0 0 1 277.437 7.784 Q 276.906 9.832 274.811 10.302 A 5.493 5.493 0 0 1 274.219 10.4 A 8.463 8.463 0 0 1 273.516 10.43 L 270.821 10.43 L 270.821 2.227 Z M 111.036 2.227 L 113.965 2.227 A 4.768 4.768 0 0 1 115.341 2.412 A 3.32 3.32 0 0 1 117.452 4.277 Q 117.833 5.127 117.833 6.064 A 4.864 4.864 0 0 1 117.635 7.487 A 3.722 3.722 0 0 1 116.368 9.346 A 3.614 3.614 0 0 1 114.053 10.137 L 111.036 10.137 L 111.036 2.227 Z M 129.698 11.865 L 126.592 11.777 A 8.817 8.817 0 0 1 126.785 10.239 Q 126.971 9.408 127.327 8.785 A 3.428 3.428 0 0 1 128.79 7.383 A 3.059 3.059 0 0 1 130.225 7.031 Q 132.253 7.031 132.934 8.721 A 3.568 3.568 0 0 1 132.95 8.76 A 3.039 3.039 0 0 1 133.183 9.871 A 3.495 3.495 0 0 1 133.184 9.961 A 2.274 2.274 0 0 1 133.085 10.659 Q 132.858 11.365 132.11 11.648 A 2.527 2.527 0 0 1 131.778 11.748 A 5.064 5.064 0 0 1 131.355 11.812 Q 130.769 11.879 129.918 11.869 A 21.119 21.119 0 0 1 129.698 11.865 Z M 226.084 11.865 L 222.979 11.777 A 8.817 8.817 0 0 1 223.171 10.239 Q 223.357 9.408 223.713 8.785 A 3.428 3.428 0 0 1 225.176 7.383 A 3.059 3.059 0 0 1 226.612 7.031 Q 228.64 7.031 229.321 8.721 A 3.568 3.568 0 0 1 229.336 8.76 A 3.039 3.039 0 0 1 229.57 9.871 A 3.495 3.495 0 0 1 229.571 9.961 A 2.274 2.274 0 0 1 229.472 10.659 Q 229.244 11.365 228.497 11.648 A 2.527 2.527 0 0 1 228.165 11.748 A 5.064 5.064 0 0 1 227.741 11.812 Q 227.156 11.879 226.305 11.869 A 21.119 21.119 0 0 1 226.084 11.865 Z M 25.899 12.686 L 25.899 15.029 A 4.621 4.621 0 0 1 25.392 16.376 A 3.694 3.694 0 0 1 23.76 17.871 A 3.619 3.619 0 0 1 23.022 18.106 A 2.974 2.974 0 0 1 22.442 18.164 A 2.663 2.663 0 0 1 21.568 18.03 Q 20.543 17.675 20.245 16.377 A 3.879 3.879 0 0 1 20.174 15.888 A 5.028 5.028 0 0 1 20.157 15.469 Q 20.157 13.543 22.329 12.999 A 5.49 5.49 0 0 1 22.413 12.979 Q 23.416 12.758 25.175 12.702 A 37.336 37.336 0 0 1 25.899 12.686 Z M 326.397 12.686 L 326.397 15.029 A 4.621 4.621 0 0 1 325.89 16.376 A 3.694 3.694 0 0 1 324.258 17.871 A 3.619 3.619 0 0 1 323.52 18.106 A 2.974 2.974 0 0 1 322.94 18.164 A 2.663 2.663 0 0 1 322.066 18.03 Q 321.041 17.675 320.743 16.377 A 3.879 3.879 0 0 1 320.672 15.888 A 5.028 5.028 0 0 1 320.655 15.469 Q 320.655 13.543 322.827 12.999 A 5.49 5.49 0 0 1 322.911 12.979 Q 323.914 12.758 325.673 12.702 A 37.336 37.336 0 0 1 326.397 12.686 Z M 182.409 0.932 A 2.053 2.053 0 0 0 182.256 0.85 A 2.002 2.002 0 0 0 181.912 0.74 A 1.549 1.549 0 0 0 181.583 0.703 A 1.733 1.733 0 0 0 180.947 0.814 Q 180.503 0.987 180.229 1.433 A 2.091 2.091 0 0 0 180.118 1.641 A 1.61 1.61 0 0 0 179.971 2.314 Q 179.971 3.398 180.938 3.809 A 1.901 1.901 0 0 0 181.482 3.923 A 1.775 1.775 0 0 0 181.583 3.926 A 1.724 1.724 0 0 0 182.189 3.825 Q 182.742 3.618 183.018 2.988 A 1.61 1.61 0 0 0 183.165 2.314 Q 183.165 1.379 182.409 0.932 Z" vector-effect="non-scaling-stroke"/></g></svg>